<?xml version="1.0" encoding="UTF-8"?>
<!DOCTYPE svg PUBLIC "-//W3C//DTD SVG 1.1//EN" "http://www.w3.org/Graphics/SVG/1.1/DTD/svg11.dtd">
<!-- Creator: CorelDRAW 2021 (64-Bit) -->
<svg xmlns="http://www.w3.org/2000/svg" xml:space="preserve" width="178.113mm" height="107.143mm" version="1.1" style="shape-rendering:geometricPrecision; text-rendering:geometricPrecision; image-rendering:optimizeQuality; fill-rule:evenodd; clip-rule:evenodd"
viewBox="0 0 7782.48 4681.51"
 xmlns:xlink="http://www.w3.org/1999/xlink"
 xmlns:xodm="http://www.corel.com/coreldraw/odm/2003">
 <defs>
  <style type="text/css">
   <![CDATA[
    .fil0 {fill:none}
   ]]>
  </style>
   <clipPath id="id0">
    <path d="M521.57 0l6739.34 0c286.86,0 521.57,234.7 521.57,521.57l0 3638.38c0,286.86 -234.71,521.57 -521.57,521.57l-6739.34 0c-286.86,0 -521.57,-234.7 -521.57,-521.57l0 -3638.38c0,-286.86 234.71,-521.57 521.57,-521.57z"/>
   </clipPath>
    <clipPath id="id1">
     <path d="M521.57 0l6739.34 0c286.86,0 521.57,234.7 521.57,521.57l0 3638.38c0,286.86 -234.71,521.57 -521.57,521.57l-6739.34 0c-286.86,0 -521.57,-234.7 -521.57,-521.57l0 -3638.38c0,-286.86 234.71,-521.57 521.57,-521.57z"/>
    </clipPath>
    <clipPath id="id2">
     <path d="M521.57 0l6739.34 0c286.86,0 521.57,234.7 521.57,521.57l0 3638.38c0,286.86 -234.71,521.57 -521.57,521.57l-6739.34 0c-286.86,0 -521.57,-234.7 -521.57,-521.57l0 -3638.38c0,-286.86 234.71,-521.57 521.57,-521.57z"/>
    </clipPath>
 </defs>
 <g id="Layer_x0020_1">
  <metadata id="CorelCorpID_0Corel-Layer"/>
  <g>
  </g>
  <g style="clip-path:url(#id0)">
   <g>
   </g>
   <g style="clip-path:url(#id1)">
    <image x="-196.31" y="-724.9" width="8175.09" height="6131.32" xlink:href="about_Images\about_ImgID1.png"/>
   </g>
   <g style="clip-path:url(#id2)">
   </g>
  </g>
  <path class="fil0" d="M521.57 0l6739.34 0c286.86,0 521.57,234.7 521.57,521.57l0 3638.38c0,286.86 -234.71,521.57 -521.57,521.57l-6739.34 0c-286.86,0 -521.57,-234.7 -521.57,-521.57l0 -3638.38c0,-286.86 234.71,-521.57 521.57,-521.57z"/>
 </g>
</svg>
