<?xml version="1.0" encoding="UTF-8"?>
<!DOCTYPE svg PUBLIC "-//W3C//DTD SVG 1.1//EN" "http://www.w3.org/Graphics/SVG/1.1/DTD/svg11.dtd">
<!-- Creator: CorelDRAW 2021 (64-Bit) -->
<svg xmlns="http://www.w3.org/2000/svg" xml:space="preserve" width="51.4116mm" height="27.3366mm" version="1.1" style="shape-rendering:geometricPrecision; text-rendering:geometricPrecision; image-rendering:optimizeQuality; fill-rule:evenodd; clip-rule:evenodd"
viewBox="0 0 5141.16 2733.66"
 xmlns:xlink="http://www.w3.org/1999/xlink"
 xmlns:xodm="http://www.corel.com/coreldraw/odm/2003">
 <defs>
  <style type="text/css">
   <![CDATA[
    .fil1 {fill:#00DBA1}
    .fil0 {fill:#1F2270}
   ]]>
  </style>
 </defs>
 <g id="Layer_x0020_1">
  <metadata id="CorelCorpID_0Corel-Layer"/>
  <g id="_2205979145216">
   <path class="fil0" d="M1456.7 89.38l-1440.79 895.93c-10.19,6.33 -15.91,16.63 -15.91,28.63 0,235.26 0,470.52 0,705.78 0,11.99 5.72,22.29 15.91,28.63l1440.79 895.93c10.67,6.64 23.2,6.94 34.18,0.83 10.99,-6.1 17.34,-16.89 17.34,-29.47l0 -649.49c0,-12 -5.73,-22.31 -15.93,-28.64l-721.36 -447.97c-11.16,-6.93 -22.46,-10.71 -35.6,-10.67l-316.38 1.1c-11.99,0.04 -15.94,16.65 -15.94,28.65 0,12 5.75,22.33 15.95,28.64l847.91 525.62c10.21,6.32 15.94,16.65 15.94,28.64l0 118.45c0,12.6 -6.37,23.41 -17.41,29.51 -11.03,6.09 -23.59,5.74 -34.25,-0.97l-972.02 -611.17c-10.12,-6.38 -15.8,-16.67 -15.77,-28.64 0.32,-147.7 0.34,-309 0,-463.74 -0.03,-11.97 5.65,-22.27 15.77,-28.65l972.02 -611.16c10.66,-6.71 23.22,-7.06 34.25,-0.97 11.04,6.1 17.41,16.91 17.41,29.51l0 118.44c0,12 -5.74,22.32 -15.94,28.65l-848.35 526.02c-10.19,6.31 -15.95,16.63 -15.95,28.63 0,12.01 3.94,28.68 15.95,28.65l313.22 -0.76c13.15,-0.03 28.02,-2.27 39.19,-9.21l721.36 -447.97c10.2,-6.32 15.93,-16.63 15.93,-28.63l0 -649.49c0,-12.58 -6.35,-23.37 -17.34,-29.47 -10.98,-6.12 -23.51,-5.81 -34.18,0.83z"/>
   <path class="fil1" d="M1723.58 2125.31l277.89 589.01c5.35,11.35 15.66,18.39 28.18,19.25 12.52,0.86 23.71,-4.7 30.55,-15.22l934.08 -1436.51c10.12,-15.57 5.73,-36.51 -9.82,-46.66l-132.96 -86.76c-7.76,-5.07 -16.29,-6.65 -25.38,-4.74 -9.08,1.91 -16.26,6.81 -21.3,14.59l-711.47 1097.11c-6.84,10.55 -18.08,16.12 -30.63,15.24 -12.54,-0.88 -22.87,-7.98 -28.19,-19.39l-50.18 -107.62c-5.07,-10.86 -4.24,-22.6 2.29,-32.64l1061.73 -1631.51c6.86,-10.55 18.07,-16.13 30.62,-15.25 12.55,0.88 22.87,7.98 28.19,19.39l49.65 106.48c5.06,10.84 4.2,22.55 -2.28,32.6l-186.9 290.08c-10.03,15.58 -5.66,36.46 9.86,46.59l133.25 86.94c15.56,10.14 36.52,5.74 46.68,-9.82l257.89 -395.31c6.58,-10.09 7.39,-21.91 2.25,-32.81l-277.88 -589.01c-5.36,-11.35 -15.67,-18.39 -28.19,-19.25 -12.51,-0.86 -23.69,4.71 -30.54,15.21l-1355.13 2077.21c-6.59,10.09 -7.39,21.91 -2.26,32.8z"/>
   <path class="fil0" d="M3684.46 89.38l1440.79 895.93c10.19,6.33 15.91,16.63 15.91,28.63 0,235.26 0,470.52 0,705.78 0,11.99 -5.72,22.29 -15.91,28.63l-1440.79 895.93c-10.67,6.64 -23.2,6.94 -34.18,0.83 -10.99,-6.1 -17.34,-16.89 -17.34,-29.47l0 -649.49c0,-12 5.73,-22.31 15.93,-28.64l721.36 -447.97c11.16,-6.93 22.46,-10.71 35.59,-10.67l316.39 1.1c11.99,0.04 15.94,16.65 15.94,28.65 0,12 -5.76,22.33 -15.95,28.64l-847.92 525.62c-10.2,6.32 -15.94,16.65 -15.94,28.64l0 118.45c0,12.6 6.38,23.41 17.42,29.51 11.03,6.09 23.59,5.74 34.24,-0.97l972.03 -611.17c10.12,-6.38 15.8,-16.67 15.77,-28.64 -0.32,-147.7 -0.34,-309 0,-463.74 0.03,-11.97 -5.65,-22.27 -15.77,-28.65l-972.03 -611.16c-10.65,-6.71 -23.21,-7.06 -34.24,-0.97 -11.04,6.1 -17.42,16.91 -17.42,29.51l0 118.44c0,12 5.75,22.32 15.94,28.65l848.36 526.02c10.19,6.31 15.94,16.63 15.94,28.63 0,12.01 -3.93,28.68 -15.94,28.65l-313.22 -0.76c-13.15,-0.03 -28.02,-2.27 -39.19,-9.21l-721.36 -447.97c-10.2,-6.32 -15.93,-16.63 -15.93,-28.63l0 -649.49c0,-12.58 6.35,-23.37 17.34,-29.47 10.98,-6.12 23.51,-5.81 34.18,0.83z"/>
  </g>
 </g>
</svg>
